Coordinates
version=1
nRows=24
nColumns=38
inDegrees=no

Units are S.I. units (second, meters, Newtons, ...)
If the header above contains a line with 'inDegrees', this indicates whether rotational values are in degrees (yes) or radians (no).

endheader
time	pelvis_tilt	pelvis_list	pelvis_rotation	pelvis_tx	pelvis_ty	pelvis_tz	hip_flexion_r	hip_adduction_r	hip_rotation_r	knee_angle_r	ankle_angle_r	subtalar_angle_r	mtp_angle_r	hip_flexion_l	hip_adduction_l	hip_rotation_l	knee_angle_l	ankle_angle_l	subtalar_angle_l	mtp_angle_l	lumbar_extension	lumbar_bending	lumbar_rotation	arm_flex_r	arm_add_r	arm_rot_r	elbow_flex_r	pro_sup_r	wrist_flex_r	wrist_dev_r	arm_flex_l	arm_add_l	arm_rot_l	elbow_flex_l	pro_sup_l	wrist_flex_l	wrist_dev_l
0	0.153599	1.40865	-1.63987	0.407317	1.5493	1.08408	0.0858256	-0.112945	0.0306226	1.17302	-0.484796	0	0	-0.0934206	-0.0716162	-0.426838	0.433073	-0.202626	0	0	-0.539232	-0.0268065	0.124684	0.373853	-0.480961	1.24413	0.545009	0.472773	0	0	0.27281	-0.249762	0.68255	0.445153	0.840254	0	0
0.01	0.160099	1.40771	-1.64307	0.409723	1.53974	1.08535	0.109742	-0.107389	0.0391908	1.17864	-0.460928	0	0	-0.114447	-0.0529406	-0.385948	0.39624	-0.205962	0	0	-0.543713	-0.0254545	0.120116	0.375415	-0.478653	1.23506	0.541893	0.484211	0	0	0.279181	-0.248733	0.685974	0.44233	0.827093	0	0
0.02	0.150328	1.40836	-1.63139	0.41226	1.53022	1.08589	0.130077	-0.100129	0.0439885	1.1713	-0.447845	0	0	-0.125789	-0.0527549	-0.386154	0.391126	-0.206577	0	0	-0.545555	-0.0217836	0.117913	0.378209	-0.478858	1.23331	0.540632	0.487312	0	0	0.282464	-0.24683	0.687242	0.440246	0.824396	0	0
0.03	0.141582	1.41013	-1.62099	0.414729	1.52079	1.08618	0.150523	-0.0932536	0.0480638	1.15936	-0.433878	0	0	-0.135299	-0.0525569	-0.3859	0.386801	-0.206729	0	0	-0.546255	-0.0184545	0.116077	0.381153	-0.479237	1.23232	0.539506	0.48982	0	0	0.285295	-0.244581	0.688022	0.438113	0.823246	0	0
0.04	0.133837	1.41217	-1.61133	0.417192	1.51142	1.08627	0.170956	-0.0867984	0.0515507	1.14488	-0.420763	0	0	-0.143891	-0.0523797	-0.385189	0.383677	-0.206348	0	0	-0.546253	-0.0153149	0.114475	0.383771	-0.479901	1.23142	0.538712	0.492203	0	0	0.288079	-0.242232	0.687936	0.436492	0.822105	0	0
0.05	0.12643	1.41397	-1.60209	0.419649	1.50193	1.08621	0.190442	-0.0808192	0.0547041	1.12804	-0.408778	0	0	-0.153	-0.0519928	-0.384202	0.380748	-0.205289	0	0	-0.545549	-0.0119419	0.1131	0.385766	-0.481224	1.23067	0.538794	0.494299	0	0	0.290169	-0.239924	0.687578	0.434726	0.821056	0	0
0.06	0.119358	1.416	-1.59362	0.422022	1.49242	1.08598	0.209448	-0.0751685	0.0577916	1.109	-0.397163	0	0	-0.161874	-0.051627	-0.383852	0.378467	-0.203494	0	0	-0.544411	-0.00884138	0.112133	0.387478	-0.483057	1.22988	0.539622	0.495799	0	0	0.291901	-0.237749	0.687039	0.4335	0.820136	0	0
0.07	0.114579	1.41812	-1.58755	0.42431	1.48294	1.08558	0.227668	-0.0702863	0.0608682	1.08819	-0.385117	0	0	-0.170283	-0.0508936	-0.383194	0.377095	-0.200902	0	0	-0.543078	-0.00613869	0.111211	0.389088	-0.485198	1.22934	0.54096	0.497062	0	0	0.293644	-0.235747	0.686897	0.432488	0.819737	0	0
0.08	0.112759	1.42035	-1.5846	0.42648	1.47349	1.08502	0.245152	-0.0662763	0.0638884	1.06594	-0.372237	0	0	-0.178431	-0.0497767	-0.382462	0.37601	-0.197906	0	0	-0.541594	-0.00405036	0.110516	0.390522	-0.487521	1.22911	0.542641	0.498292	0	0	0.295401	-0.233857	0.686668	0.43168	0.819265	0	0
0.09	0.113132	1.42274	-1.58403	0.428502	1.46405	1.0843	0.261892	-0.0629158	0.0671285	1.0422	-0.357476	0	0	-0.186159	-0.0483086	-0.38096	0.375221	-0.194382	0	0	-0.540039	-0.00240371	0.110055	0.391735	-0.490012	1.22859	0.544674	0.499443	0	0	0.297018	-0.232585	0.686726	0.431314	0.819115	0	0
0.1	0.115946	1.42539	-1.58568	0.430408	1.45464	1.08347	0.277649	-0.0604502	0.0701738	1.0166	-0.342289	0	0	-0.19347	-0.0466215	-0.378735	0.374237	-0.190866	0	0	-0.538451	-0.00114878	0.109304	0.392942	-0.492467	1.22772	0.546939	0.500435	0	0	0.298622	-0.231802	0.686896	0.431612	0.819086	0	0
0.11	0.121662	1.4285	-1.58988	0.432249	1.44519	1.08253	0.292149	-0.058762	0.0737489	0.988316	-0.324836	0	0	-0.200486	-0.0443588	-0.375006	0.372192	-0.187171	0	0	-0.53645	-8.23751e-05	0.107981	0.393993	-0.495086	1.2264	0.549974	0.501587	0	0	0.299938	-0.231472	0.6869	0.432613	0.818725	0	0
0.12	0.128072	1.43161	-1.59504	0.434046	1.43557	1.08149	0.305462	-0.0575387	0.0773158	0.958529	-0.311643	0	0	-0.207538	-0.0421744	-0.372453	0.370609	-0.184262	0	0	-0.533724	0.000808014	0.107025	0.394508	-0.497512	1.2253	0.552663	0.502674	0	0	0.300785	-0.231142	0.686898	0.433852	0.817997	0	0
0.13	0.134156	1.43525	-1.60016	0.435794	1.42575	1.08031	0.317856	-0.05639	0.0809955	0.926743	-0.299745	0	0	-0.214526	-0.040064	-0.369979	0.368579	-0.181312	0	0	-0.529874	0.00170191	0.106352	0.394352	-0.499819	1.22398	0.555289	0.503459	0	0	0.300924	-0.230641	0.68643	0.435001	0.816758	0	0
0.14	0.139461	1.43932	-1.60456	0.437509	1.41575	1.07901	0.329437	-0.0554909	0.0835936	0.893422	-0.288938	0	0	-0.221268	-0.0382247	-0.367524	0.366465	-0.178597	0	0	-0.525311	0.00290866	0.105667	0.393799	-0.502228	1.22257	0.558189	0.504222	0	0	0.300439	-0.23029	0.686011	0.436162	0.815974	0	0
0.15	0.145504	1.44357	-1.60959	0.43924	1.40566	1.07765	0.339959	-0.0550532	0.0859091	0.858685	-0.278652	0	0	-0.22773	-0.0363543	-0.364627	0.364475	-0.176078	0	0	-0.520389	0.00414756	0.104851	0.392828	-0.50447	1.22086	0.560833	0.504991	0	0	0.299513	-0.229802	0.685265	0.437313	0.815376	0	0
0.16	0.153251	1.44801	-1.61628	0.440931	1.39544	1.07618	0.34985	-0.0551684	0.0870037	0.822978	-0.269897	0	0	-0.233799	-0.0345346	-0.361741	0.362919	-0.173871	0	0	-0.515059	0.00528395	0.103858	0.391527	-0.506409	1.21887	0.563147	0.505804	0	0	0.298294	-0.229496	0.684843	0.438285	0.815567	0	0
0.17	0.162842	1.45269	-1.62499	0.442525	1.38505	1.07457	0.359304	-0.055258	0.0864623	0.785752	-0.263586	0	0	-0.239672	-0.0328324	-0.35903	0.36161	-0.171726	0	0	-0.509231	0.006105	0.103089	0.38977	-0.508305	1.2167	0.565602	0.507206	0	0	0.29669	-0.229287	0.68412	0.439352	0.816059	0	0
0.18	0.178413	1.4582	-1.63981	0.444093	1.37446	1.07274	0.369556	-0.0566793	0.0832222	0.74933	-0.258781	0	0	-0.244592	-0.0306783	-0.356726	0.360664	-0.169621	0	0	-0.502115	0.00632866	0.102208	0.387223	-0.510105	1.2139	0.568164	0.508764	0	0	0.294507	-0.229171	0.683153	0.440347	0.816983	0	0
0.19	0.198923	1.46475	-1.6597	0.445609	1.36369	1.07066	0.380886	-0.0583891	0.0791618	0.714439	-0.252753	0	0	-0.248209	-0.0283544	-0.35503	0.360276	-0.167507	0	0	-0.493482	0.00621768	0.101265	0.384012	-0.51161	1.21075	0.57055	0.510854	0	0	0.291882	-0.229137	0.6824	0.440866	0.818797	0	0
0.2	0.221983	1.47176	-1.68261	0.446864	1.35283	1.06842	0.392409	-0.0593074	0.0757278	0.68101	-0.242375	0	0	-0.251114	-0.0262197	-0.353496	0.360386	-0.165274	0	0	-0.484097	0.00572782	0.101006	0.380324	-0.512779	1.20732	0.572702	0.513468	0	0	0.289107	-0.229187	0.681312	0.441228	0.820439	0	0
0.21	0.250871	1.47894	-1.71186	0.447965	1.3418	1.0661	0.403448	-0.0601116	0.0725468	0.649252	-0.22583	0	0	-0.253889	-0.0239374	-0.352352	0.360477	-0.163318	0	0	-0.47432	0.00474067	0.101144	0.37612	-0.513708	1.20352	0.574778	0.516531	0	0	0.285984	-0.229186	0.679582	0.441315	0.82155	0	0
0.22	0.284521	1.48577	-1.74527	0.449069	1.33068	1.06377	0.412979	-0.0609904	0.0688493	0.618229	-0.204526	0	0	-0.256635	-0.0218757	-0.350356	0.361089	-0.161609	0	0	-0.465006	0.00381398	0.100607	0.371843	-0.514259	1.19938	0.576715	0.520001	0	0	0.282638	-0.229508	0.677395	0.441797	0.822407	0	0
0.23	0.320979	1.49198	-1.78115	0.450069	1.31939	1.06141	0.42049	-0.061318	0.065185	0.586868	-0.180283	0	0	-0.260009	-0.0202963	-0.348177	0.361985	-0.159771	0	0	-0.455921	0.00289229	0.0997965	0.366775	-0.514065	1.19347	0.578008	0.524587	0	0	0.278764	-0.230178	0.67455	0.442688	0.823511	0	0
